<?xml version="1.0" encoding="utf-8"?>
<!-- Generator: Adobe Illustrator 19.2.0, SVG Export Plug-In . SVG Version: 6.00 Build 0)  -->
<!DOCTYPE svg PUBLIC "-//W3C//DTD SVG 1.1//EN" "http://www.w3.org/Graphics/SVG/1.1/DTD/svg11.dtd">
<svg version="1.1" id="Layer_1" xmlns="http://www.w3.org/2000/svg" xmlns:xlink="http://www.w3.org/1999/xlink" x="0px" y="0px"
	 viewBox="0 0 800 146.6" style="enable-background:new 0 0 800 146.6;" xml:space="preserve">
<style type="text/css">
	.st0{fill:#222222;}
</style>
<g>
	<path id="XMLID_8_" class="st0" d="M96.6,81.5c-3.5,9.3-12.2,16.3-23.3,16.3c-13.4,0-24.4-11.1-24.4-24.4s11.1-24.4,24.4-24.4
		c10.5,0,19.8,7,23.3,16.3h50C142.5,28.5,111.7,0,73.3,0C33.2,1.2,0,33.7,0,73.9s33.2,72.7,73.3,72.7c37.8,0,69.2-28.5,73.3-65.2
		H96.6z"/>
	<g>
		<g>
			<path class="st0" d="M219.3,74.5v-0.6c0-27.9,20.4-46.5,47.1-46.5c23.9,0,40.7,11.1,43.1,34.9h-27.3c-1.2-9.3-6.4-14.5-15.7-14.5
				c-11.6,0-19.2,9.3-19.2,25.6v1.2c0,16.3,7,25.6,19.8,25.6c9.3,0,15.7-4.7,17.5-15.1h26.2c-1.7,23.9-19.2,36.1-43.1,36.1
				C235.1,121.6,219.3,103,219.3,74.5z"/>
			<path class="st0" d="M332.8,28.5H359v71h34.9v20.4h-61.1V28.5z"/>
			<path class="st0" d="M420.1,28.5h64v20.4h-37.8v15.7h29.7v18.6h-29.7v16.9h39.6v20.4h-65.7V28.5z"/>
			<path class="st0" d="M512,28.5h36.1c24.4,0,37.8,9.9,37.8,29.1v0.6c0,12.8-7,20.4-16.9,23.9l22.1,37.8h-27.9l-18.6-32.6h-6.4
				v32.6H512V28.5z M546.9,70.4c8.7,0,13.4-3.5,13.4-11.1v-0.6c0-7.6-4.7-10.5-13.4-10.5h-8.7v22.1H546.9z"/>
			<path class="st0" d="M615,28.5h26.8v36.1l27.9-36.1h27.9L663.9,71l35.5,48.9h-30.8l-26.8-38.4v38.4H615V28.5z"/>
			<path class="st0" d="M744.1,80.9l-30.3-52.4H743l15.7,30.8l15.7-30.8H800l-28.5,52.4v39h-26.8v-39H744.1z"/>
		</g>
	</g>
</g>
</svg>
