<svg id="Layer_1" data-name="Layer 1" xmlns="http://www.w3.org/2000/svg" xmlns:xlink="http://www.w3.org/1999/xlink" viewBox="0 0 635.48 169.82"><defs><style>.cls-1{fill:#30419a;}.cls-2{fill:url(#linear-gradient);}.cls-3{fill:url(#linear-gradient-2);}.cls-4{fill:url(#linear-gradient-3);}</style><linearGradient id="linear-gradient" x1="679.06" y1="349.39" x2="509.24" y2="349.39" gradientUnits="userSpaceOnUse"><stop offset="0" stop-color="#008cce"/><stop offset="0.73" stop-color="#30419a"/><stop offset="0.82" stop-color="#35419a"/><stop offset="0.94" stop-color="#45419a"/><stop offset="0.99" stop-color="#4f419a"/></linearGradient><linearGradient id="linear-gradient-2" x1="662.51" y1="380.25" x2="522.6" y2="380.25" xlink:href="#linear-gradient"/><linearGradient id="linear-gradient-3" x1="679.08" y1="388.5" x2="606.13" y2="388.5" xlink:href="#linear-gradient"/></defs><title>openwaterlogo1</title><path class="cls-1" d="M91.2,322.13a54.13,54.13,0,0,1-1.52,13.3,32.93,32.93,0,0,1-4.4,10.24,20.86,20.86,0,0,1-7,6.62,19.52,19.52,0,0,1-18.61,0,20.9,20.9,0,0,1-7-6.62,32.47,32.47,0,0,1-4.4-10.24,53.63,53.63,0,0,1-1.53-13.3,54.65,54.65,0,0,1,1.48-13.25,31.88,31.88,0,0,1,4.36-10.19,20.57,20.57,0,0,1,7-6.59,20.05,20.05,0,0,1,18.65,0,20.57,20.57,0,0,1,7,6.59,32.84,32.84,0,0,1,4.4,10.19A53.6,53.6,0,0,1,91.2,322.13Zm-10.8,0a49.61,49.61,0,0,0-.75-8.84,27.78,27.78,0,0,0-2.18-7.15,13.41,13.41,0,0,0-3.57-4.75A7.56,7.56,0,0,0,69,299.64a7.73,7.73,0,0,0-5,1.75,13.53,13.53,0,0,0-3.57,4.75,26.69,26.69,0,0,0-2.13,7.15,56.23,56.23,0,0,0,0,17.69,27.34,27.34,0,0,0,2.13,7.19A13.43,13.43,0,0,0,64,343a8.06,8.06,0,0,0,10,0,13.43,13.43,0,0,0,3.57-4.79A27.71,27.71,0,0,0,79.7,331,53.82,53.82,0,0,0,80.4,322.13Z" transform="translate(-43.59 -275.99)"/><path class="cls-1" d="M135.39,309.58a21.74,21.74,0,0,1-1.43,8.24,17.58,17.58,0,0,1-3.78,5.88,14.92,14.92,0,0,1-5.38,3.49,17.89,17.89,0,0,1-6.25,1.13h-7.3v24.76H101V291.36h17a22.63,22.63,0,0,1,6.08.88,14.41,14.41,0,0,1,5.61,3,16.51,16.51,0,0,1,4.09,5.62A20.9,20.9,0,0,1,135.39,309.58Zm-9.85.13c0-3.29-.78-5.7-2.35-7.2a8.34,8.34,0,0,0-6-2.25h-5.93v19.52h5.93a7.79,7.79,0,0,0,6-2.56C124.76,315.52,125.54,313,125.54,309.71Z" transform="translate(-43.59 -275.99)"/><path class="cls-1" d="M144.11,353.08V291.36h27.63v9.24H154.13V317h16.3v8.54h-16.3v18.22h18.48v9.33Z" transform="translate(-43.59 -275.99)"/><path class="cls-1" d="M209.13,353.08l-17.52-43.59h-.26l.18,43.59h-9.42V291.36h11.94l17.35,43.85h.26l-.09-43.85h9.07v61.72Z" transform="translate(-43.59 -275.99)"/><path class="cls-1" d="M298,353.08H286l-8.54-46.37h-.18l-8.54,46.37h-12L245,291.36h10.64l7.93,47.94h.35l8.28-47.94h11l8.55,47.94h.17l7.93-47.94h10.11Z" transform="translate(-43.59 -275.99)"/><path class="cls-1" d="M344,353.08,340.92,340H324.71l-3.14,13.08H311.11l15.34-61.72h13.34l15.08,61.72Zm-10.89-51.87h-.35L326,331.81h13.59Z" transform="translate(-43.59 -275.99)"/><path class="cls-1" d="M376.75,300.26v52.82H366.46V300.26H354.87v-8.9h33.47v8.9Z" transform="translate(-43.59 -275.99)"/><path class="cls-1" d="M394.44,353.08V291.36h27.63v9.24H404.46V317h16.3v8.54h-16.3v18.22h18.48v9.33Z" transform="translate(-43.59 -275.99)"/><path class="cls-1" d="M458,353.08l-9.59-26.33h-5.84v26.33H432.44V291.36h17.61a23.62,23.62,0,0,1,7.06,1,14,14,0,0,1,5.53,3.18,14.91,14.91,0,0,1,3.62,5.49,21.62,21.62,0,0,1,1.31,7.93,20,20,0,0,1-.92,6.32,16.9,16.9,0,0,1-2.31,4.66,13.17,13.17,0,0,1-3.09,3.1,10.74,10.74,0,0,1-3.36,1.61L469,353.08Zm-.7-43.59a11.88,11.88,0,0,0-.78-4.62,7.46,7.46,0,0,0-2.05-2.87,7.54,7.54,0,0,0-2.83-1.48,11.72,11.72,0,0,0-3.14-.44h-5.93v19h5.93a8.68,8.68,0,0,0,6.32-2.4Q457.28,314.29,457.28,309.49Z" transform="translate(-43.59 -275.99)"/><path class="cls-1" d="M74.17,430.55l-2.84-12.16H56.24l-2.92,12.16H43.59l14.28-57.42H70.28l14,57.42ZM64,382.29h-.32l-6.25,28.47H70.11Z" transform="translate(-43.59 -275.99)"/><path class="cls-1" d="M117.85,429.91a19,19,0,0,1-17.68-.17,20.21,20.21,0,0,1-6.66-6.28,31.87,31.87,0,0,1-4.21-9.53,49.59,49.59,0,0,1,0-24.21,31.12,31.12,0,0,1,4.25-9.57,20.12,20.12,0,0,1,6.7-6.25,17.33,17.33,0,0,1,8.72-2.23,19.58,19.58,0,0,1,8.67,1.82,15.67,15.67,0,0,1,6.09,5.24l-5.6,6.81a10.08,10.08,0,0,0-8.6-4.79,8.22,8.22,0,0,0-5.11,1.67,13,13,0,0,0-3.65,4.5,24.79,24.79,0,0,0-2.19,6.69,44.76,44.76,0,0,0-.73,8.23,44.2,44.2,0,0,0,.73,8.15,24.79,24.79,0,0,0,2.19,6.69,12.91,12.91,0,0,0,3.69,4.51,8.51,8.51,0,0,0,5.24,1.66,8.3,8.3,0,0,0,4.9-1.46,13,13,0,0,0,3.45-3.57l5.6,6.57A18.1,18.1,0,0,1,117.85,429.91Z" transform="translate(-43.59 -275.99)"/><path class="cls-1" d="M158.08,429.91a19,19,0,0,1-17.68-.17,20.12,20.12,0,0,1-6.66-6.28,31.62,31.62,0,0,1-4.21-9.53,49.28,49.28,0,0,1,0-24.21,30.65,30.65,0,0,1,4.25-9.57,20.12,20.12,0,0,1,6.7-6.25,17.3,17.3,0,0,1,8.71-2.23,19.6,19.6,0,0,1,8.68,1.82,15.67,15.67,0,0,1,6.09,5.24l-5.6,6.81a10.08,10.08,0,0,0-8.6-4.79,8.22,8.22,0,0,0-5.11,1.67,13,13,0,0,0-3.65,4.5,24.79,24.79,0,0,0-2.19,6.69,44.76,44.76,0,0,0-.73,8.23,44.2,44.2,0,0,0,.73,8.15,24.79,24.79,0,0,0,2.19,6.69,12.91,12.91,0,0,0,3.69,4.51,8.5,8.5,0,0,0,5.23,1.66,8.31,8.31,0,0,0,4.91-1.46,13,13,0,0,0,3.45-3.57l5.6,6.57A18.1,18.1,0,0,1,158.08,429.91Z" transform="translate(-43.59 -275.99)"/><path class="cls-1" d="M170.77,430.55V373.13h25.71v8.6H180.1V397h15.16v7.95H180.1v17h17.19v8.67Z" transform="translate(-43.59 -275.99)"/><path class="cls-1" d="M206.13,430.55V373.13H216v48.42h15.81v9Z" transform="translate(-43.59 -275.99)"/><path class="cls-1" d="M238.09,430.55V373.13H263.8v8.6H247.42V397h15.16v7.95H247.42v17h17.19v8.67Z" transform="translate(-43.59 -275.99)"/><path class="cls-1" d="M297.22,430.55l-8.92-24.49h-5.44v24.49h-9.41V373.13h16.39a22.1,22.1,0,0,1,6.57.93,13.06,13.06,0,0,1,5.15,3,14,14,0,0,1,3.36,5.11,19.94,19.94,0,0,1,1.22,7.38,18.49,18.49,0,0,1-.85,5.88,16,16,0,0,1-2.15,4.34,12.29,12.29,0,0,1-2.88,2.88,10,10,0,0,1-3.12,1.5l10.3,26.44ZM296.57,390a10.93,10.93,0,0,0-.73-4.3,6.91,6.91,0,0,0-1.91-2.68,7,7,0,0,0-2.63-1.37,10.94,10.94,0,0,0-2.92-.41h-5.52v17.68h5.52a8.11,8.11,0,0,0,5.88-2.23C295.8,395.21,296.57,393,296.57,390Z" transform="translate(-43.59 -275.99)"/><path class="cls-1" d="M340,430.55l-2.84-12.16H322l-2.92,12.16h-9.74l14.28-57.42h12.41l14,57.42Zm-10.14-48.26h-.32l-6.25,28.47h12.66Z" transform="translate(-43.59 -275.99)"/><path class="cls-1" d="M370.46,381.4v49.15h-9.57V381.4H350.1v-8.27h31.15v8.27Z" transform="translate(-43.59 -275.99)"/><path class="cls-1" d="M425.78,401.76a50.29,50.29,0,0,1-1.42,12.37,30.63,30.63,0,0,1-4.1,9.53,19.34,19.34,0,0,1-6.53,6.16,18.22,18.22,0,0,1-17.32,0,19.47,19.47,0,0,1-6.48-6.16,30.17,30.17,0,0,1-4.1-9.53,49.81,49.81,0,0,1-1.42-12.37,50.89,50.89,0,0,1,1.38-12.33,30,30,0,0,1,4-9.49,19,19,0,0,1,6.53-6.12,18.6,18.6,0,0,1,17.36,0,18.92,18.92,0,0,1,6.53,6.12,30.7,30.7,0,0,1,4.1,9.49A49.84,49.84,0,0,1,425.78,401.76Zm-10.06,0a46.68,46.68,0,0,0-.69-8.23,26.08,26.08,0,0,0-2-6.65,12.47,12.47,0,0,0-3.33-4.42,7,7,0,0,0-4.58-1.63,7.15,7.15,0,0,0-4.66,1.63,12.59,12.59,0,0,0-3.33,4.42,25,25,0,0,0-2,6.65,52.43,52.43,0,0,0,0,16.46,25.63,25.63,0,0,0,2,6.69,12.53,12.53,0,0,0,3.33,4.47,7.53,7.53,0,0,0,9.33,0,12.51,12.51,0,0,0,3.32-4.47,25.62,25.62,0,0,0,2-6.69A49.75,49.75,0,0,0,415.72,401.76Z" transform="translate(-43.59 -275.99)"/><path class="cls-1" d="M458.62,430.55l-8.92-24.49h-5.43v24.49h-9.41V373.13h16.38a22.1,22.1,0,0,1,6.57.93,13,13,0,0,1,5.15,3,13.86,13.86,0,0,1,3.37,5.11,20.15,20.15,0,0,1,1.22,7.38,18.78,18.78,0,0,1-.85,5.88,16,16,0,0,1-2.15,4.34,12.29,12.29,0,0,1-2.88,2.88,10,10,0,0,1-3.13,1.5l10.3,26.44ZM458,390a11.11,11.11,0,0,0-.73-4.3,6.69,6.69,0,0,0-4.55-4.05,10.83,10.83,0,0,0-2.92-.41h-5.51v17.68h5.51a8.11,8.11,0,0,0,5.88-2.23C457.2,395.21,458,393,458,390Z" transform="translate(-43.59 -275.99)"/><path class="cls-2" d="M536.4,373.65c6.91-19.42,14.05-39.5,33.19-56.85,24.33-22,52.42-27.44,83.51-16a58.15,58.15,0,0,1,26,19.08V300.06A24.15,24.15,0,0,0,655,276H533.31a24.15,24.15,0,0,0-24.07,24.07V421.74c0,.36,0,.7.06,1.05C524.22,407.86,530.18,391.15,536.4,373.65Z" transform="translate(-43.59 -275.99)"/><path class="cls-3" d="M585.39,389.09A46.12,46.12,0,0,1,587,351.93c9.51-19.89,25.78-29.1,47-26.63,18,2.09,28.25,18,28.53,19.38-.51-10.45-10.86-24.24-22.25-27.64-20.12-6-37.74-.42-55.15,15.36-14.65,13.28-19.58,31.18-26,49.31-7.05,19.83-15,44.47-36.48,64.11,2.46,0,6.9,0,10.71,0h116.3C606.85,424.74,591,403.74,585.39,389.09Z" transform="translate(-43.59 -275.99)"/><path class="cls-4" d="M679.06,421.78V387.16a32.74,32.74,0,0,1-5.49,3.91c-7,3.95-21.64,8.61-41.45-4.44l-6.49-4.28h0a19,19,0,0,0,0-38.06c-10.51,0-18.62,8.63-19.36,19.12-.5,7.09.17,11.89,2.91,18,7.27,16.27,33,35.81,69.88,51.28C679.09,429.56,679.06,425.35,679.06,421.78Z" transform="translate(-43.59 -275.99)"/></svg>