<svg width="943" height="485" viewBox="0 0 943 485" fill="none" xmlns="http://www.w3.org/2000/svg">
<path d="M315.57 365.102C327.959 349.31 336.731 330.712 341.205 310.755C343.415 300.869 344.521 290.742 344.501 280.584H74.7864C74.7806 290.48 75.8557 300.345 77.9906 309.981C82.4645 330.566 91.4662 349.748 104.267 365.973C117.134 382.242 133.263 395.288 151.488 404.169C169.713 413.049 189.578 417.542 209.647 417.322C252.674 417.225 290.943 396.917 315.57 365.102ZM392.2 148.872C397.918 168.284 400.819 188.499 400.805 208.829V431.828C400.802 441.679 397.418 451.195 391.28 458.612C385.143 466.029 376.668 470.845 367.426 472.167C358.184 473.489 348.802 471.228 341.018 465.802C333.233 460.376 327.575 452.154 325.091 442.659C324.386 439.612 322.746 436.898 320.427 434.939C318.109 432.98 315.242 431.886 312.273 431.828H310.534C307.565 431.886 304.698 432.98 302.38 434.939C300.061 436.898 298.421 439.612 297.716 442.659C295.467 451.248 290.614 458.822 283.9 464.219C277.186 469.616 268.982 472.539 260.545 472.539C252.108 472.539 243.904 469.616 237.19 464.219C230.476 458.822 225.623 451.248 223.374 442.659C222.669 439.612 221.029 436.898 218.71 434.939C216.392 432.98 213.525 431.886 210.557 431.828H208.728C205.759 431.886 202.892 432.98 200.574 434.939C198.255 436.898 196.616 439.612 195.91 442.659C193.662 451.248 188.809 458.822 182.095 464.219C175.381 469.616 167.176 472.539 158.739 472.539C150.302 472.539 142.098 469.616 135.384 464.219C128.67 458.822 123.817 451.248 121.569 442.659C120.863 439.612 119.223 436.898 116.905 434.939C114.586 432.98 111.719 431.886 108.751 431.828H107.011C104.042 431.886 101.176 432.98 98.857 434.939C96.5385 436.898 94.8987 439.612 94.193 442.659C91.7091 452.154 86.0508 460.376 78.2667 465.802C70.4825 471.228 61.1002 473.489 51.8582 472.167C42.6163 470.845 34.1414 466.029 28.0039 458.612C21.8664 451.195 18.4824 441.679 18.479 431.828V208.728C18.4665 188.4 21.3687 168.186 27.087 148.776L37.4323 151.967C35.0752 160.183 33.872 168.719 33.8611 177.304C33.8611 199.925 42.3686 221.619 57.5121 237.615C72.6555 253.61 93.1945 262.596 114.611 262.596C136.027 262.596 156.566 253.61 171.709 237.615C186.852 221.619 195.36 199.925 195.36 177.304H223.836C223.836 188.505 225.924 199.596 229.982 209.944C234.04 220.292 239.988 229.695 247.487 237.615C254.985 245.535 263.887 251.818 273.684 256.104C283.481 260.39 293.981 262.596 304.585 262.596C315.189 262.596 325.689 260.39 335.486 256.104C345.283 251.818 354.185 245.535 361.683 237.615C369.182 229.695 375.13 220.292 379.188 209.944C383.246 199.596 385.334 188.505 385.334 177.304C385.331 168.719 384.128 160.181 381.764 151.967L392.2 148.872Z" fill="#EF644D"/>
<path d="M392.204 148.872L381.858 152.063C376.109 132.587 363.944 115.931 347.569 105.114C331.193 94.296 311.691 90.0327 292.596 93.0963C273.501 96.1599 256.076 106.348 243.48 121.814C230.885 137.279 223.951 156.999 223.936 177.4H195.46C195.457 156.991 188.529 137.259 175.932 121.783C163.336 106.306 145.906 96.111 126.803 93.0456C107.7 89.9801 88.1894 94.2476 71.8099 105.074C55.4304 115.901 43.2667 132.569 37.525 152.056L27.1797 148.865C39.2874 107.736 63.5311 71.7754 96.3679 46.2381C129.205 20.7007 168.913 6.92554 209.69 6.92554C250.468 6.92554 290.176 20.7007 323.013 46.2381C355.85 71.7754 380.093 107.736 392.201 148.865L392.204 148.872Z" fill="#ED654B"/>
<path d="M381.763 152.063C384.121 160.279 385.324 168.816 385.335 177.4C385.264 198.829 377.532 219.439 363.688 235.103C349.843 250.767 330.907 260.328 310.672 261.873C290.438 263.418 270.397 256.832 254.564 243.434C238.73 230.036 228.273 210.815 225.286 189.619C222.298 168.424 227.001 146.819 238.453 129.13C249.905 111.441 267.26 98.9747 287.043 94.2265C306.826 89.4783 327.578 92.799 345.142 103.524C362.706 114.248 375.786 131.585 381.763 152.063ZM346.058 177.399C346.058 168.754 343.631 160.303 339.084 153.115C334.536 145.926 328.073 140.324 320.512 137.016C312.95 133.707 304.629 132.842 296.602 134.528C288.575 136.215 281.201 140.378 275.414 146.491C269.626 152.604 265.685 160.392 264.088 168.871C262.491 177.35 263.311 186.139 266.443 194.126C269.575 202.113 274.879 208.94 281.685 213.743C288.49 218.546 296.491 221.11 304.675 221.11C310.111 221.116 315.495 219.989 320.518 217.795C325.542 215.6 330.106 212.381 333.95 208.32C337.794 204.26 340.842 199.439 342.919 194.133C344.997 188.827 346.064 183.141 346.058 177.399Z" fill="#FEC761"/>
<path d="M74.7867 280.485H344.501C344.527 290.644 343.421 300.77 341.205 310.656L337.91 309.882H77.987C75.8483 300.247 74.7743 290.382 74.7867 280.485V280.485Z" fill="white"/>
<path d="M312.915 146.841C316.192 146.841 319.396 147.867 322.121 149.791C324.846 151.714 326.97 154.448 328.224 157.646C329.479 160.844 329.807 164.363 329.167 167.759C328.528 171.154 326.95 174.273 324.632 176.72C322.315 179.168 319.362 180.835 316.148 181.511C312.933 182.186 309.602 181.839 306.574 180.515C303.546 179.19 300.958 176.947 299.137 174.068C297.316 171.19 296.344 167.806 296.344 164.344C296.344 162.045 296.772 159.769 297.605 157.645C298.437 155.521 299.658 153.592 301.197 151.966C302.735 150.341 304.562 149.052 306.573 148.172C308.584 147.293 310.739 146.84 312.915 146.841Z" fill="white"/>
<path d="M283.985 186.102C285.61 186.121 287.194 186.648 288.537 187.616C289.88 188.583 290.922 189.949 291.532 191.541C292.141 193.133 292.291 194.88 291.963 196.562C291.635 198.243 290.843 199.785 289.687 200.993C288.531 202.2 287.063 203.02 285.467 203.348C283.872 203.676 282.22 203.498 280.719 202.836C279.219 202.175 277.937 201.059 277.036 199.63C276.135 198.201 275.654 196.522 275.654 194.805C275.681 192.489 276.57 190.278 278.129 188.649C279.688 187.02 281.792 186.105 283.985 186.102V186.102Z" fill="white"/>
<path d="M114.612 92.1068C130.583 92.1068 146.195 97.1091 159.474 106.481C172.753 115.853 183.103 129.174 189.215 144.759C195.326 160.344 196.925 177.494 193.81 194.039C190.694 210.584 183.003 225.782 171.71 237.71C160.417 249.638 146.029 257.762 130.365 261.053C114.702 264.344 98.4655 262.655 83.7105 256.199C68.9555 249.744 56.3441 238.811 47.4713 224.785C38.5984 210.759 33.8625 194.268 33.8625 177.399C33.8666 168.814 35.0699 160.276 37.4338 152.062C42.5709 134.686 52.8291 119.498 66.7124 108.713C80.5958 97.9278 97.3781 92.1096 114.612 92.1068ZM155.994 177.399C155.994 168.754 153.567 160.303 149.02 153.115C144.473 145.927 138.01 140.324 130.448 137.016C122.887 133.707 114.566 132.842 106.539 134.528C98.5112 136.215 91.1376 140.378 85.3501 146.491C79.5627 152.604 75.6214 160.393 74.0246 168.872C72.4279 177.351 73.2474 186.139 76.3796 194.127C79.5117 202.114 84.8158 208.94 91.6211 213.743C98.4264 218.546 106.427 221.11 114.612 221.11C120.048 221.116 125.432 219.989 130.455 217.795C135.478 215.6 140.043 212.381 143.886 208.321C147.73 204.261 150.778 199.44 152.856 194.134C154.934 188.828 156 183.141 155.994 177.399Z" fill="#FEC758"/>
<path d="M122.943 146.841C126.22 146.841 129.424 147.867 132.149 149.791C134.874 151.714 136.998 154.448 138.252 157.646C139.507 160.844 139.835 164.363 139.195 167.759C138.556 171.154 136.978 174.273 134.66 176.72C132.343 179.168 129.39 180.835 126.176 181.511C122.961 182.186 119.63 181.839 116.602 180.515C113.574 179.19 110.986 176.946 109.165 174.068C107.344 171.19 106.372 167.806 106.372 164.344C106.372 162.045 106.8 159.769 107.633 157.645C108.465 155.521 109.686 153.592 111.225 151.966C112.763 150.341 114.59 149.052 116.601 148.172C118.612 147.293 120.767 146.84 122.943 146.841Z" fill="white"/>
<path d="M114.246 377.188C110.733 373.606 107.401 369.829 104.267 365.875L105.091 365.1H111.133C138.611 365.089 165.91 369.759 191.979 378.929L209.649 385.119L224.664 379.8C252.442 370.02 281.529 365.024 310.809 365.004H315.57C303.407 380.25 288.426 392.715 271.545 401.636C254.664 410.557 236.237 415.747 217.392 416.887C198.547 418.028 179.68 415.095 161.945 408.269C144.209 401.443 127.979 390.867 114.246 377.188V377.188Z" fill="#7FB8E3"/>
<path d="M94.0128 186.102C95.6384 186.121 97.2224 186.648 98.5653 187.615C99.9083 188.583 100.95 189.949 101.56 191.541C102.169 193.133 102.32 194.88 101.991 196.562C101.663 198.243 100.871 199.785 99.7154 200.993C98.5596 202.2 97.0913 203.02 95.4955 203.348C93.8997 203.676 92.2477 203.498 90.7474 202.836C89.2472 202.175 87.9657 201.059 87.0643 199.63C86.1628 198.201 85.6818 196.522 85.6817 194.805C85.6771 193.653 85.8901 192.511 86.3082 191.446C86.7264 190.382 87.3414 189.416 88.1171 188.606C88.8929 187.795 89.8139 187.157 90.8262 186.727C91.8385 186.297 92.9218 186.084 94.0128 186.102V186.102Z" fill="white"/>
<path d="M304.676 133.69C296.492 133.69 288.491 136.253 281.686 141.056C274.88 145.859 269.576 152.686 266.444 160.673C263.312 168.66 262.492 177.449 264.089 185.928C265.686 194.407 269.627 202.195 275.415 208.308C281.202 214.421 288.576 218.585 296.603 220.271C304.631 221.958 312.951 221.092 320.513 217.784C328.074 214.475 334.538 208.873 339.085 201.685C343.632 194.496 346.059 186.045 346.059 177.4C346.065 171.658 344.998 165.972 342.92 160.666C340.843 155.36 337.795 150.539 333.951 146.479C330.107 142.419 325.543 139.199 320.52 137.005C315.496 134.81 310.112 133.684 304.676 133.69ZM283.986 203.607C282.356 203.607 280.763 203.096 279.408 202.14C278.053 201.184 276.997 199.824 276.373 198.234C275.75 196.644 275.587 194.894 275.905 193.205C276.222 191.517 277.007 189.966 278.16 188.749C279.312 187.532 280.78 186.703 282.378 186.367C283.977 186.032 285.633 186.204 287.139 186.863C288.645 187.521 289.931 188.637 290.837 190.068C291.742 191.499 292.225 193.182 292.225 194.903C292.214 197.208 291.342 199.415 289.799 201.044C288.256 202.674 286.166 203.595 283.985 203.607H283.986ZM312.916 181.752C309.639 181.752 306.435 180.725 303.71 178.802C300.985 176.879 298.861 174.145 297.607 170.947C296.352 167.749 296.024 164.229 296.664 160.834C297.303 157.439 298.881 154.32 301.199 151.872C303.516 149.425 306.469 147.758 309.683 147.082C312.898 146.407 316.23 146.753 319.257 148.078C322.285 149.403 324.873 151.646 326.694 154.525C328.515 157.403 329.487 160.787 329.487 164.249C329.487 166.548 329.059 168.824 328.227 170.948C327.394 173.071 326.173 175.001 324.635 176.627C323.096 178.252 321.269 179.541 319.258 180.421C317.247 181.3 315.092 181.752 312.916 181.752Z" fill="black"/>
<path d="M114.613 221.109C122.798 221.109 130.799 218.546 137.604 213.743C144.409 208.94 149.713 202.113 152.846 194.126C155.978 186.139 156.797 177.35 155.2 168.871C153.604 160.392 149.662 152.604 143.875 146.491C138.088 140.378 130.714 136.215 122.687 134.528C114.659 132.841 106.338 133.707 98.7768 137.015C91.2152 140.324 84.7521 145.926 80.2049 153.114C75.6578 160.303 73.2307 168.754 73.2307 177.399C73.2251 183.141 74.2916 188.827 76.3692 194.133C78.4469 199.439 81.4949 204.26 85.3387 208.32C89.1826 212.38 93.7468 215.6 98.7701 217.794C103.793 219.989 109.177 221.115 114.613 221.109ZM122.944 146.841C126.222 146.841 129.425 147.867 132.15 149.791C134.876 151.714 136.999 154.448 138.254 157.646C139.508 160.844 139.836 164.363 139.197 167.759C138.557 171.154 136.979 174.273 134.662 176.72C132.344 179.168 129.391 180.835 126.177 181.511C122.963 182.186 119.631 181.839 116.603 180.515C113.575 179.19 110.987 176.946 109.166 174.068C107.345 171.19 106.374 167.806 106.374 164.344C106.373 162.045 106.801 159.769 107.634 157.645C108.466 155.521 109.687 153.592 111.226 151.966C112.765 150.341 114.592 149.052 116.602 148.172C118.613 147.293 120.768 146.84 122.944 146.841ZM94.0127 186.103C95.6384 186.122 97.2223 186.649 98.5653 187.617C99.9082 188.585 100.95 189.951 101.56 191.542C102.169 193.134 102.32 194.881 101.991 196.563C101.663 198.245 100.871 199.787 99.7154 200.994C98.5595 202.202 97.0912 203.021 95.4955 203.349C93.8997 203.677 92.2476 203.499 90.7474 202.838C89.2471 202.176 87.9656 201.061 87.0642 199.632C86.1628 198.203 85.6817 196.524 85.6816 194.807C85.677 193.654 85.89 192.512 86.3082 191.448C86.7264 190.383 87.3413 189.418 88.1171 188.607C88.8928 187.797 89.8138 187.158 90.8261 186.728C91.8385 186.298 92.9218 186.086 94.0127 186.103Z" fill="black"/>
<path d="M342.132 61.8894C308.072 25.96 262.904 4.18351 214.891 0.543356C166.878 -3.0968 119.228 11.6427 80.6593 42.0657C46.8328 68.83 21.8207 106.142 9.15533 148.733C3.08079 169.035 -0.00694577 190.201 1.17316e-05 211.493V434.489C0.0202358 446.683 4.21695 458.457 11.8151 467.637C19.4133 476.817 29.8996 482.783 41.3376 484.433C52.7756 486.084 64.3927 483.307 74.0433 476.615C83.6939 469.923 90.7263 459.769 93.8417 448.028C94.0488 447.056 94.558 446.185 95.2881 445.555C96.0181 444.924 96.9271 444.569 97.8701 444.547H99.61C100.561 444.591 101.471 444.966 102.2 445.613C102.928 446.26 103.434 447.143 103.638 448.125C106.441 458.723 112.451 468.061 120.749 474.714C129.048 481.367 139.18 484.968 149.598 484.968C160.016 484.968 170.148 481.367 178.446 474.714C186.745 468.061 192.754 458.723 195.557 448.125C195.76 447.142 196.266 446.258 196.995 445.611C197.723 444.964 198.634 444.59 199.586 444.547H201.414C202.366 444.587 203.279 444.96 204.008 445.608C204.738 446.255 205.242 447.141 205.443 448.125C208.246 458.723 214.255 468.061 222.554 474.714C230.852 481.367 240.984 484.968 251.402 484.968C261.82 484.968 271.952 481.367 280.251 474.714C288.549 468.061 294.559 458.723 297.362 448.125C297.553 447.136 298.054 446.244 298.786 445.595C299.517 444.945 300.435 444.576 301.39 444.547H303.13C304.083 444.587 304.996 444.961 305.725 445.61C306.455 446.259 306.959 447.145 307.158 448.13C310.276 459.879 317.316 470.039 326.976 476.73C336.636 483.421 348.263 486.192 359.708 484.529C371.152 482.866 381.639 476.882 389.23 467.684C396.821 458.486 401.002 446.697 401 434.495V211.49C401.007 190.198 397.919 169.032 391.845 148.73C382.154 115.968 365.097 86.1727 342.132 61.8894ZM367.126 180.158C367.107 199.21 360.275 217.55 347.997 231.507C335.72 245.463 318.903 254.004 300.917 255.419C282.93 256.834 265.101 251.019 251.001 239.138C236.901 227.258 227.572 210.189 224.881 191.35C222.191 172.512 226.338 153.296 236.493 137.55C246.647 121.805 262.058 110.693 279.64 106.441C297.222 102.189 315.675 105.11 331.304 114.62C346.933 124.129 358.583 139.525 363.922 157.723C366.051 164.989 367.131 172.552 367.127 180.158H367.126ZM324.645 303.358H76.3487C75.7988 299.495 75.4344 296.59 75.1588 292.721H325.837C325.562 296.59 325.196 299.491 324.646 303.358H324.645ZM121.582 273.381C160.583 266.613 190.888 231.798 194.916 190.216H205.994C210.022 231.8 240.327 266.613 279.328 273.381H121.582ZM91.6446 57.5336C126.679 29.8963 169.966 16.5133 213.58 19.835C257.193 23.1568 298.215 42.9611 329.133 75.6217C338.328 85.3853 346.522 96.1469 353.578 107.728C352.205 106.471 350.739 105.214 349.275 104.053C333.739 91.7952 314.833 85.2404 295.442 85.3886C273.144 85.3595 251.634 94.0965 235.099 109.898C218.565 125.7 208.19 147.436 205.994 170.874H194.916C193.305 154.153 187.528 138.181 178.173 124.585C168.817 110.989 156.218 100.254 141.658 93.4731C127.098 86.6926 111.097 84.1085 95.2836 85.9839C79.4705 87.8594 64.4102 94.1275 51.6363 104.15C50.2059 105.233 48.8307 106.395 47.5165 107.631C59.2859 88.2909 74.2297 71.3256 91.6446 57.5336ZM37.0785 157.723C42.4219 139.49 54.0904 124.063 69.7464 114.533C85.4024 105.002 103.89 102.072 121.504 106.33C139.119 110.587 154.56 121.718 164.734 137.492C174.908 153.265 179.063 172.517 176.368 191.39C173.673 210.263 164.325 227.363 150.199 239.265C136.072 251.167 118.21 256.991 100.19 255.57C82.1703 254.15 65.3241 245.59 53.0264 231.606C40.7287 217.621 33.8878 199.245 33.8743 180.158C33.8799 172.553 34.9599 164.991 37.0785 157.723ZM177.973 442.806C176.256 449.325 172.571 455.073 167.476 459.175C162.382 463.277 156.158 465.509 149.753 465.531C143.347 465.553 137.11 463.364 131.99 459.296C126.871 455.229 123.15 449.506 121.394 442.999C120.18 437.898 117.384 433.373 113.451 430.147C109.518 426.921 104.676 425.18 99.6962 425.201H97.9563C93.0004 425.234 88.194 426.997 84.2859 430.217C80.3779 433.436 77.5876 437.93 76.35 442.999C74.3932 450.23 70.0299 456.472 64.0628 460.576C58.0957 464.679 50.9264 466.369 43.8739 465.333C36.8214 464.297 30.3602 460.606 25.6791 454.939C20.9981 449.272 18.412 442.01 18.3969 434.489V211.49C18.3969 209.266 18.5797 206.945 18.6712 204.625C23.1877 221.944 32.2307 237.57 44.7645 249.713C57.2984 261.856 72.8164 270.025 89.5416 273.285H56.7632V283.148C56.7125 293.787 57.8183 304.397 60.0588 314.77C64.8383 336.811 74.4671 357.353 88.1648 374.73C91.4858 378.967 95.0314 383.003 98.7844 386.817C122.768 411.112 153.927 425.963 187.042 428.883C182.609 432.301 179.41 437.211 177.973 442.806ZM200.495 410.314C169.806 410.515 140.073 399.051 116.724 378.015C138.25 379.388 159.516 383.711 179.987 390.876L200.495 398.129L218.44 391.747C239.673 384.234 261.737 379.651 284.083 378.111C260.776 399.078 231.115 410.506 200.501 410.314H200.495ZM382.685 434.489C382.66 441.991 380.073 449.232 375.4 454.882C370.727 460.532 364.281 464.212 357.246 465.247C350.211 466.281 343.059 464.601 337.103 460.514C331.146 456.428 326.785 450.209 324.82 442.999C323.537 437.938 320.723 433.459 316.805 430.245C312.887 427.032 308.082 425.26 303.122 425.201H301.382C296.417 425.197 291.594 426.946 287.678 430.171C283.763 433.396 280.982 437.912 279.776 442.999C278.04 449.52 274.332 455.261 269.218 459.347C264.104 463.433 257.864 465.638 251.452 465.628C245.039 465.617 238.806 463.389 233.705 459.286C228.603 455.183 224.913 449.429 223.197 442.903C221.774 437.302 218.533 432.408 214.042 429.074C233.277 427.367 251.996 421.621 269.1 412.173C286.205 402.724 301.352 389.763 313.652 374.049C326.848 357.072 336.182 337.123 340.935 315.737C343.256 305.115 344.392 294.243 344.322 283.342V273.381H311.738C328.462 270.12 343.978 261.95 356.51 249.807C369.042 237.664 378.083 222.04 382.599 204.721C382.691 206.945 382.874 209.266 382.874 211.587V434.489H382.685Z" fill="black"/>
<ellipse cx="770" cy="322" rx="36" ry="38" fill="#ED654B"/>
<path fill-rule="evenodd" clip-rule="evenodd" d="M753.695 334.656C755.735 334.656 757.389 333.166 757.389 331.328C757.389 329.49 755.735 328 753.695 328C751.654 328 750 329.49 750 331.328C750 333.166 751.654 334.656 753.695 334.656ZM753.695 333.244C754.869 333.244 755.822 332.386 755.822 331.328C755.822 330.27 754.869 329.412 753.695 329.412C752.52 329.412 751.567 330.27 751.567 331.328C751.567 332.386 752.52 333.244 753.695 333.244Z" fill="black"/>
<path d="M754.358 328.491C756.564 319.719 747.682 311.64 754.358 304.504C762.21 296.11 777.546 296.11 785.398 304.504C792.075 311.64 781.971 319.469 785.398 328.491" stroke="black" stroke-width="3"/>
<path fill-rule="evenodd" clip-rule="evenodd" d="M786.695 334.656C788.735 334.656 790.389 333.166 790.389 331.328C790.389 329.49 788.735 328 786.695 328C784.654 328 783 329.49 783 331.328C783 333.166 784.654 334.656 786.695 334.656ZM786.694 333.244C787.869 333.244 788.822 332.386 788.822 331.328C788.822 330.27 787.869 329.412 786.694 329.412C785.52 329.412 784.567 330.27 784.567 331.328C784.567 332.386 785.52 333.244 786.694 333.244Z" fill="black"/>
<path fill-rule="evenodd" clip-rule="evenodd" d="M761.695 319.656C763.735 319.656 765.389 318.166 765.389 316.328C765.389 314.49 763.735 313 761.695 313C759.654 313 758 314.49 758 316.328C758 318.166 759.654 319.656 761.695 319.656ZM761.694 318.244C762.869 318.244 763.822 317.386 763.822 316.328C763.822 315.27 762.869 314.412 761.694 314.412C760.52 314.412 759.567 315.27 759.567 316.328C759.567 317.386 760.52 318.244 761.694 318.244Z" fill="black"/>
<path fill-rule="evenodd" clip-rule="evenodd" d="M777.695 319.656C779.735 319.656 781.389 318.166 781.389 316.328C781.389 314.49 779.735 313 777.695 313C775.654 313 774 314.49 774 316.328C774 318.166 775.654 319.656 777.695 319.656ZM777.695 318.244C778.869 318.244 779.822 317.386 779.822 316.328C779.822 315.27 778.869 314.412 777.695 314.412C776.52 314.412 775.567 315.27 775.567 316.328C775.567 317.386 776.52 318.244 777.695 318.244Z" fill="black"/>
<path fill-rule="evenodd" clip-rule="evenodd" d="M770.068 344.973C772.108 344.973 773.763 343.483 773.763 341.644C773.763 339.806 772.108 338.316 770.068 338.316C768.028 338.316 766.374 339.806 766.374 341.644C766.374 343.483 768.028 344.973 770.068 344.973ZM770.068 343.561C771.243 343.561 772.195 342.703 772.195 341.644C772.195 340.586 771.243 339.728 770.068 339.728C768.893 339.728 767.941 340.586 767.941 341.644C767.941 342.703 768.893 343.561 770.068 343.561Z" fill="black"/>
<path d="M769.967 324.318V339.122M769.967 324.318L764.207 318.182M769.967 324.318L775.883 318.182" stroke="black" stroke-width="3"/>
<path d="M655.66 157.844H635.543V218H623.922V157.844H603.854V147.98H655.66V157.844ZM697.213 196.076H663.131C663.261 200.699 664.677 204.263 667.379 206.77C670.113 209.276 673.857 210.529 678.609 210.529C683.948 210.529 688.847 208.934 693.307 205.744V214.875C688.749 217.74 682.727 219.172 675.24 219.172C667.883 219.172 662.105 216.91 657.906 212.385C653.74 207.827 651.656 201.431 651.656 193.195C651.656 185.415 653.951 179.084 658.541 174.201C663.163 169.286 668.893 166.828 675.729 166.828C682.564 166.828 687.854 169.025 691.598 173.42C695.341 177.814 697.213 183.918 697.213 191.73V196.076ZM686.275 188.068C686.243 183.999 685.283 180.842 683.395 178.596C681.507 176.317 678.902 175.178 675.582 175.178C672.327 175.178 669.56 176.366 667.281 178.742C665.035 181.118 663.652 184.227 663.131 188.068H686.275ZM743.795 215.705C739.791 218.016 735.055 219.172 729.586 219.172C722.164 219.172 716.174 216.861 711.617 212.238C707.06 207.583 704.781 201.561 704.781 194.172C704.781 185.936 707.223 179.328 712.105 174.348C717.021 169.335 723.58 166.828 731.783 166.828C736.34 166.828 740.361 167.626 743.844 169.221V179.768C740.361 177.163 736.65 175.861 732.711 175.861C727.926 175.861 724.003 177.489 720.943 180.744C717.883 183.967 716.354 188.199 716.354 193.439C716.354 198.615 717.786 202.701 720.65 205.695C723.548 208.69 727.421 210.188 732.271 210.188C736.34 210.188 740.182 208.739 743.795 205.842V215.705ZM799.508 218H788.18V190.656C788.18 180.76 784.876 175.812 778.268 175.812C774.947 175.812 772.148 177.245 769.869 180.109C767.59 182.974 766.451 186.636 766.451 191.096V218H755.074V143.977H766.451V176.301H766.646C770.423 169.986 775.826 166.828 782.857 166.828C793.958 166.828 799.508 173.615 799.508 187.189V218ZM485.299 325.609V351H473.727V280.98H494.967C503.007 280.98 509.241 282.852 513.668 286.596C518.095 290.339 520.309 295.613 520.309 302.416C520.309 309.219 517.997 314.786 513.375 319.115C508.753 323.445 502.503 325.609 494.625 325.609H485.299ZM485.299 290.551V316.137H492.818C497.799 316.137 501.591 314.981 504.195 312.67C506.799 310.359 508.102 307.104 508.102 302.904C508.102 294.669 503.316 290.551 493.746 290.551H485.299ZM575.387 351H564.059V323.656C564.059 313.76 560.755 308.812 554.146 308.812C550.826 308.812 548.027 310.245 545.748 313.109C543.469 315.974 542.33 319.636 542.33 324.096V351H530.953V276.977H542.33V309.301H542.525C546.301 302.986 551.705 299.828 558.736 299.828C569.837 299.828 575.387 306.615 575.387 320.189V351ZM627.535 351H616.549V343.188H616.354C612.903 349.177 607.841 352.172 601.168 352.172C596.253 352.172 592.395 350.837 589.596 348.168C586.829 345.499 585.445 341.967 585.445 337.572C585.445 328.132 590.882 322.631 601.754 321.068L616.598 318.969C616.598 311.84 613.212 308.275 606.441 308.275C600.484 308.275 595.113 310.326 590.328 314.428V304.516C595.602 301.391 601.689 299.828 608.59 299.828C621.22 299.828 627.535 306.046 627.535 318.48V351ZM616.598 326.439L606.1 327.904C602.844 328.327 600.387 329.125 598.727 330.297C597.099 331.436 596.285 333.454 596.285 336.352C596.285 338.467 597.034 340.209 598.531 341.576C600.061 342.911 602.096 343.578 604.635 343.578C608.085 343.578 610.934 342.374 613.18 339.965C615.458 337.523 616.598 334.464 616.598 330.785V326.439ZM685.934 351H674.605V322.826C674.605 313.484 671.301 308.812 664.693 308.812C661.243 308.812 658.395 310.115 656.148 312.719C653.902 315.29 652.779 318.546 652.779 322.484V351H641.402V301H652.779V309.301H652.975C656.718 302.986 662.122 299.828 669.186 299.828C674.622 299.828 678.772 301.602 681.637 305.15C684.501 308.666 685.934 313.76 685.934 320.434V351ZM726.168 350.463C723.954 351.57 721.041 352.123 717.428 352.123C707.727 352.123 702.877 347.468 702.877 338.158V309.887H694.527V301H702.877V289.428L714.205 286.205V301H726.168V309.887H714.205V334.887C714.205 337.849 714.742 339.965 715.816 341.234C716.891 342.504 718.681 343.139 721.188 343.139C723.108 343.139 724.768 342.585 726.168 341.479V350.463ZM893.307 351H881.979V323.754C881.979 318.513 881.23 314.721 879.732 312.377C878.268 310.033 875.777 308.861 872.262 308.861C869.299 308.861 866.777 310.342 864.693 313.305C862.643 316.267 861.617 319.815 861.617 323.949V351H850.24V322.826C850.24 313.516 846.952 308.861 840.377 308.861C837.317 308.861 834.794 310.261 832.809 313.061C830.855 315.86 829.879 319.49 829.879 323.949V351H818.551V301H829.879V308.91H830.074C833.688 302.855 838.945 299.828 845.846 299.828C849.296 299.828 852.307 300.788 854.879 302.709C857.483 304.597 859.257 307.087 860.201 310.18C863.912 303.279 869.446 299.828 876.803 299.828C887.805 299.828 893.307 306.615 893.307 320.189V351ZM904 349.438V338.939C908.232 342.162 912.903 343.773 918.014 343.773C924.85 343.773 928.268 341.755 928.268 337.719C928.268 336.579 927.975 335.619 927.389 334.838C926.803 334.024 926.005 333.308 924.996 332.689C924.02 332.071 922.848 331.518 921.48 331.029C920.146 330.541 918.648 329.988 916.988 329.369C914.938 328.555 913.082 327.693 911.422 326.781C909.794 325.87 908.427 324.844 907.32 323.705C906.246 322.533 905.432 321.215 904.879 319.75C904.326 318.285 904.049 316.576 904.049 314.623C904.049 312.214 904.618 310.098 905.758 308.275C906.897 306.42 908.427 304.874 910.348 303.637C912.268 302.367 914.449 301.423 916.891 300.805C919.332 300.154 921.855 299.828 924.459 299.828C929.081 299.828 933.215 300.528 936.861 301.928V311.84C933.346 309.431 929.309 308.227 924.752 308.227C923.32 308.227 922.018 308.373 920.846 308.666C919.706 308.959 918.73 309.366 917.916 309.887C917.102 310.408 916.467 311.042 916.012 311.791C915.556 312.507 915.328 313.305 915.328 314.184C915.328 315.258 915.556 316.169 916.012 316.918C916.467 317.667 917.135 318.334 918.014 318.92C918.925 319.473 919.999 319.994 921.236 320.482C922.506 320.938 923.954 321.443 925.582 321.996C927.73 322.875 929.651 323.77 931.344 324.682C933.069 325.593 934.534 326.635 935.738 327.807C936.943 328.946 937.87 330.281 938.521 331.811C939.173 333.308 939.498 335.098 939.498 337.182C939.498 339.721 938.912 341.934 937.74 343.822C936.568 345.71 935.006 347.273 933.053 348.51C931.1 349.747 928.837 350.658 926.266 351.244C923.727 351.863 921.041 352.172 918.209 352.172C912.74 352.172 908.004 351.26 904 349.438Z" fill="#ED654B"/>
</svg>
